<svg width="50" height="50" inkscape:version="0.92.5 (2060ec1f9f, 2020-04-08)" sodipodi:docname="profile_icon_item.svg" version="1.1" viewBox="0 0 13.229 13.229" xmlns="http://www.w3.org/2000/svg" xmlns:inkscape="http://www.inkscape.org/namespaces/inkscape" xmlns:sodipodi="http://sodipodi.sourceforge.net/DTD/sodipodi-0.dtd" xmlns:xlink="http://www.w3.org/1999/xlink">
 <defs>
  <linearGradient id="linearGradient2586" inkscape:collect="always">
   <stop style="stop-color:#34d034" offset="0"/>
   <stop style="stop-color:#1e90ff" offset="1"/>
  </linearGradient>
  <linearGradient id="linearGradient1386" x1="2.1076" x2="10.89" y1="-2.351" y2="-12.967" gradientUnits="userSpaceOnUse" inkscape:collect="always" xlink:href="#linearGradient2586"/>
  <linearGradient id="linearGradient1388" x1="4.6274" x2="7.1558" y1="3.2326" y2="11.943" gradientUnits="userSpaceOnUse" inkscape:collect="always" xlink:href="#linearGradient2586"/>
 </defs>
 <sodipodi:namedview id="base" bordercolor="#666666" borderlayer="true" borderopacity="1.0" inkscape:current-layer="layer2" inkscape:cx="-0.86226742" inkscape:cy="67.849102" inkscape:document-units="mm" inkscape:pageopacity="0.0" inkscape:pageshadow="2" inkscape:showpageshadow="false" inkscape:window-height="704" inkscape:window-maximized="1" inkscape:window-width="1294" inkscape:window-x="72" inkscape:window-y="27" inkscape:zoom="2" pagecolor="#ffffff" showgrid="false" units="px"/>
 <g inkscape:groupmode="layer" inkscape:label="Layer 2">
  <path d="m-426.36 354.92c247.95-21.167 208.64-15.119 208.64-15.119l-36.286 78.619-169.33-12.095z" style="fill:none;stroke-width:.26458px;stroke:#000" inkscape:connector-curvature="0"/>
  <path transform="scale(1,-1)" d="m12.328-6.7069a5.6174 5.6174 0 0 1-5.4255 5.803 5.6174 5.6174 0 0 1-5.803-5.4255 5.6174 5.6174 0 0 1 5.4255-5.803 5.6174 5.6174 0 0 1 5.803 5.4255" style="fill:none;paint-order:fill markers stroke;stroke-width:1.486;stroke:url(#linearGradient1386)"/>
 </g>
 <g inkscape:groupmode="layer" inkscape:label="Layer 3">
  <g transform="matrix(1.2188 0 0 1.2188 -.68209 -1.2405)" style="fill:none;stroke:url(#linearGradient1388)">
   <path d="m3.521 10.028c-0.022248-0.055624 0.10012-1.8857 1.5575-2.186 0 0 0.92065 0.84277 2.2107 0.00107 0 0 1.433 0.70845 1.3218 2.2882" style="fill:none;stroke-width:.33354;stroke:url(#linearGradient1388)" inkscape:connector-curvature="0" sodipodi:nodetypes="cccc"/>
   <path d="m7.8143 5.2153a1.7365 1.8545 0 0 1-1.7365 1.8545 1.7365 1.8545 0 0 1-1.7365-1.8545 1.7365 1.8545 0 0 1 1.7365-1.8545 1.7365 1.8545 0 0 1 1.7365 1.8545z" style="fill:none;paint-order:fill markers stroke;stroke-width:.40042;stroke:url(#linearGradient1388)" inkscape:connector-curvature="0"/>
  </g>
 </g>
</svg>
